<?xml version="1.0" standalone="no"?>
<!DOCTYPE svg PUBLIC "-//W3C//DTD SVG 20010904//EN"
 "http://www.w3.org/TR/2001/REC-SVG-20010904/DTD/svg10.dtd">
<svg version="1.0" xmlns="http://www.w3.org/2000/svg"
 width="1500.000000pt" height="1230.000000pt" viewBox="0 0 1500.000000 1230.000000"
 preserveAspectRatio="xMidYMid meet">

<g transform="translate(0.000000,1230.000000) scale(0.100000,-0.100000)"
fill="#000000" stroke="none">
<path d="M5990 12289 c-803 -92 -1464 -662 -1669 -1439 -63 -239 -61 -183 -61
-1788 0 -1271 2 -1476 16 -1573 125 -900 851 -1587 1764 -1669 88 -8 546 -10
1545 -7 1551 4 1474 1 1704 62 565 150 1028 538 1275 1067 58 123 109 278 143
430 l27 123 4 1510 c3 1664 5 1602 -59 1845 -194 734 -781 1275 -1544 1422
-109 22 -125 22 -1590 24 -814 1 -1514 -2 -1555 -7z m735 -1969 c633 -166
1294 -340 1470 -386 176 -46 343 -96 372 -110 30 -14 74 -49 104 -82 59 -65
203 -305 185 -310 -6 -1 -468 56 -1026 128 -851 109 -1026 134 -1086 155 -178
65 -573 321 -854 554 -184 153 -395 384 -327 358 6 -2 530 -140 1162 -307z
m834 -830 c698 -91 1256 -168 1281 -177 66 -23 135 -101 198 -221 l52 -102
-57 -1 c-32 0 -395 -12 -807 -28 -469 -17 -772 -24 -810 -19 -187 25 -470 172
-786 406 -126 94 -266 210 -319 266 -33 34 -34 36 -12 36 13 0 580 -72 1260
-160z m1552 -623 c29 -19 119 -155 119 -179 0 -10 13 -7 -650 -149 -582 -124
-619 -130 -695 -125 -96 7 -236 42 -371 92 -128 47 -420 190 -504 245 l-65 44
40 4 c77 6 1891 89 1991 90 90 1 105 -2 135 -22z m154 -265 c18 -12 135 -199
162 -258 21 -47 25 -67 21 -125 -3 -63 -11 -83 -86 -234 -96 -190 -163 -296
-235 -372 -51 -54 -137 -123 -153 -123 -5 0 -1 163 8 363 9 199 17 437 17 529
1 134 4 169 16 182 13 13 37 19 140 40 35 7 100 6 110 -2z m-355 -184 c-47
-325 -206 -587 -414 -684 -82 -38 -116 -49 -116 -37 0 4 38 165 84 357 52 216
91 358 103 375 32 44 99 70 228 89 141 20 134 27 115 -100z m-451 -30 c-25
-113 -128 -273 -228 -355 -86 -70 -271 -149 -271 -115 0 12 80 192 119 270 60
117 134 175 281 219 108 32 110 32 99 -19z"/>
<path d="M7825 4671 c-215 -38 -415 -123 -576 -245 -335 -253 -512 -674 -470
-1116 22 -227 81 -390 200 -547 179 -237 481 -432 1101 -708 645 -288 907
-488 991 -755 81 -259 22 -541 -151 -724 -141 -149 -322 -234 -568 -267 -140
-19 -413 -6 -545 25 -509 119 -855 468 -981 988 l-31 128 -107 0 -107 0 5 -47
c5 -53 84 -1239 84 -1266 0 -14 11 -17 68 -17 l67 0 72 128 c40 70 79 136 85
145 12 16 21 11 103 -49 330 -243 643 -344 1068 -344 519 0 955 157 1247 450
245 244 370 552 370 905 0 170 -40 355 -103 480 -169 336 -533 594 -1392 985
-559 254 -806 445 -892 690 -35 101 -43 263 -19 374 38 170 157 327 311 408
149 78 361 115 568 97 431 -36 755 -332 931 -849 l36 -105 105 -3 105 -3 0 53
c0 29 -14 294 -30 588 -17 294 -30 536 -30 538 0 1 -30 2 -67 2 l-68 0 -75
-130 c-41 -72 -79 -129 -85 -126 -6 2 -52 33 -103 69 -179 127 -394 218 -591
251 -130 22 -393 20 -526 -3z"/>
<path d="M80 4526 l0 -113 78 -7 c98 -9 230 -40 283 -66 132 -68 196 -199 219
-450 14 -158 14 -2947 -1 -3096 -23 -245 -83 -369 -209 -438 -61 -33 -198 -63
-332 -72 l-98 -7 0 -108 0 -109 825 0 825 0 0 109 0 108 -102 7 c-213 15 -320
48 -394 121 -75 75 -114 187 -134 384 -16 161 -14 3111 3 3111 6 0 390 -866
863 -1948 l851 -1947 68 0 67 0 867 1947 866 1948 33 0 32 0 0 -1469 c0 -1697
-3 -1762 -76 -1917 -70 -148 -197 -209 -476 -230 l-98 -7 0 -108 0 -109 960 0
960 0 0 109 0 108 -102 7 c-216 15 -313 43 -390 115 -74 67 -115 173 -141 356
-18 135 -17 3027 1 3175 31 238 100 359 244 425 58 26 203 55 279 55 l49 0 0
115 0 115 -664 0 -663 0 -74 -167 c-41 -93 -389 -885 -774 -1760 -480 -1091
-705 -1593 -715 -1593 -10 0 -231 507 -734 1688 -396 928 -734 1720 -752 1760
l-33 72 -705 0 -706 0 0 -114z"/>
<path d="M10420 4526 l0 -116 43 0 c71 0 249 -29 314 -51 121 -40 187 -130
221 -302 15 -74 17 -240 17 -1692 0 -1498 -1 -1617 -18 -1703 -39 -209 -130
-307 -324 -347 -78 -16 -253 -35 -324 -35 l-49 0 0 -110 0 -111 1318 4 c1442
3 1354 0 1641 63 466 104 909 357 1194 682 269 308 438 677 504 1102 25 161
25 567 0 730 -139 899 -728 1585 -1607 1868 -152 49 -278 77 -470 104 -138 20
-200 21 -1302 25 l-1158 5 0 -116z m2409 -205 c230 -43 465 -141 644 -268 108
-77 266 -237 350 -354 177 -248 309 -606 362 -989 36 -253 30 -716 -11 -970
-95 -589 -377 -1010 -819 -1225 -191 -93 -421 -149 -676 -164 -605 -35 -940
127 -1023 496 -14 65 -16 239 -16 1755 0 1530 1 1686 16 1706 9 13 26 28 38
33 12 5 232 7 521 5 458 -3 510 -5 614 -25z"/>
</g>
</svg>
